<svg width="16" height="20" viewBox="0 0 16 20" fill="none" xmlns="http://www.w3.org/2000/svg">
<path d="M1.66683 11.9911C1.25526 11.6228 0.623068 11.6579 0.254788 12.0694C-0.113491 12.481 -0.0783982 13.1132 0.33317 13.4815L1.66683 11.9911ZM8 19L7.33317 19.7452C7.71282 20.0849 8.28718 20.0849 8.66683 19.7452L8 19ZM15.6668 13.4815C16.0784 13.1132 16.1135 12.481 15.7452 12.0694C15.3769 11.6579 14.7447 11.6228 14.3332 11.9911L15.6668 13.4815ZM9 1C9 0.447715 8.55228 -3.30121e-07 8 -3.0598e-07C7.44771 -2.81839e-07 7 0.447715 7 1L9 1ZM0.33317 13.4815L7.33317 19.7452L8.66683 18.2548L1.66683 11.9911L0.33317 13.4815ZM8.66683 19.7452L15.6668 13.4815L14.3332 11.9911L7.33317 18.2548L8.66683 19.7452ZM9 19L9 1L7 1L7 19L9 19Z" fill="#1D8AF7"/>
</svg>
