<svg width="64" height="64" viewBox="0 0 64 64" fill="none" xmlns="http://www.w3.org/2000/svg">
<path d="M0 32C0 14.3269 14.3269 0 32 0C49.6731 0 64 14.3269 64 32C64 49.6731 49.6731 64 32 64C14.3269 64 0 49.6731 0 32Z" fill="#1F90CF"/>
<path opacity="0.2" d="M32.7564 42.7766L41.4189 48.2766C42.5361 48.9813 43.9111 47.9329 43.5845 46.6438L41.0751 36.7782C41.0073 36.5047 41.018 36.2176 41.1062 35.95C41.1944 35.6824 41.3564 35.4452 41.5736 35.2657L49.3423 28.786C50.3564 27.9438 49.8407 26.2422 48.5173 26.1563L38.3767 25.5032C38.1 25.4871 37.834 25.3907 37.6112 25.2259C37.3883 25.0611 37.2184 24.8349 37.122 24.575L33.3407 15.0532C33.2406 14.778 33.0583 14.5403 32.8185 14.3723C32.5786 14.2044 32.2929 14.1143 32.0001 14.1143C31.7073 14.1143 31.4216 14.2044 31.1818 14.3723C30.9419 14.5403 30.7596 14.778 30.6595 15.0532L26.8782 24.575C26.7819 24.8349 26.6119 25.0611 26.3891 25.2259C26.1662 25.3907 25.9002 25.4871 25.6236 25.5032L15.4829 26.1563C14.1595 26.2422 13.6439 27.9438 14.6579 28.786L22.4267 35.2657C22.6438 35.4452 22.8058 35.6824 22.894 35.95C22.9822 36.2176 22.993 36.5047 22.9251 36.7782L20.6048 45.9219C20.2095 47.4688 21.8595 48.7235 23.1829 47.8813L31.2439 42.7766C31.4699 42.6329 31.7322 42.5565 32.0001 42.5565C32.268 42.5565 32.5303 42.6329 32.7564 42.7766Z" fill="#F7FAFC"/>
<path d="M32.7564 42.7766L41.4189 48.2766C42.5361 48.9813 43.9111 47.9329 43.5845 46.6438L41.0751 36.7782C41.0073 36.5047 41.018 36.2176 41.1062 35.95C41.1944 35.6824 41.3564 35.4452 41.5736 35.2657L49.3423 28.786C50.3564 27.9438 49.8407 26.2422 48.5173 26.1563L38.3767 25.5032C38.1 25.4871 37.834 25.3907 37.6112 25.2259C37.3883 25.0611 37.2184 24.8349 37.122 24.575L33.3407 15.0532C33.2406 14.778 33.0583 14.5403 32.8185 14.3723C32.5786 14.2044 32.2929 14.1143 32.0001 14.1143C31.7073 14.1143 31.4216 14.2044 31.1818 14.3723C30.9419 14.5403 30.7596 14.778 30.6595 15.0532L26.8782 24.575C26.7819 24.8349 26.6119 25.0611 26.3891 25.2259C26.1662 25.3907 25.9002 25.4871 25.6236 25.5032L15.4829 26.1563C14.1595 26.2422 13.6439 27.9438 14.6579 28.786L22.4267 35.2657C22.6438 35.4452 22.8058 35.6824 22.894 35.95C22.9822 36.2176 22.993 36.5047 22.9251 36.7782L20.6048 45.9219C20.2095 47.4688 21.8595 48.7235 23.1829 47.8813L31.2439 42.7766C31.4699 42.6329 31.7322 42.5565 32.0001 42.5565C32.268 42.5565 32.5303 42.6329 32.7564 42.7766V42.7766Z" stroke="#F7FAFC" stroke-width="2.75" stroke-linecap="round" stroke-linejoin="round"/>
</svg>
